<?xml version="1.0" encoding="utf-8"?>
<!-- Generator: Adobe Illustrator 25.0.0, SVG Export Plug-In . SVG Version: 6.00 Build 0)  -->
<svg version="1.1" id="Layer_1" xmlns="http://www.w3.org/2000/svg" xmlns:xlink="http://www.w3.org/1999/xlink" x="0px" y="0px"
	 viewBox="0 0 357 900" style="enable-background:new 0 0 357 900;" xml:space="preserve">
<style type="text/css">
	.st0{opacity:0.6;fill:#B72A29;}
</style>
<path class="st0" d="M280.55,860.48c-9.48-12.86-4.74-56.85-11.51-85.95c-1.58-6.79,2.56-12.1-0.68-18.27
	c-7.44-14.21-8.38-29.72-10.15-42.64c-1.56-11.4-2.95-20.06-6.09-31.13c-2.62-9.24-6.61-23.56-10.15-32.49
	c-16.25-40.99-27.16-81.22-42.64-122.5c-4.06-10.83-12.18-34.52-17.6-33.84c-4.89,0.61-11.59,28.8-13.54,43.31
	c-2.19,16.36-7.51,31.53-12.01,47.41c-3.45,12.19-5.85,24.64-8.25,37.08c-2.93,15.22-5.87,30.45-8.8,45.67
	c-3.2,16.59-2.93,34.43-4.78,51.22c-2.01,18.26-5.41,30.46-3.38,54.14c2.03,23.64,0,52.11-2.03,73.09
	c-0.66,6.77-4.9,5.51-6.09,12.86c-1.54,9.5-2.53,18.6-10.15,23.01c-12.86,7.44-30.52,3.17-45.35-2.71c-2.77-1.1-3.62-3.72-5.41-6.09
	c-2.73-3.61-1.87-8.44,0.68-12.18s4.74-4.06,6.77-8.12c-0.49-0.95-0.01-3.92-0.68-5.41c-0.79-1.76-2.79-1.99-4.06-2.03
	c-0.21-1.24-1.86-2.79-1.35-4.06c1.35-3.38,1.57-6.58,1.35-9.48c-0.23-3.11-2.48-4.43-2.03-7.44c2.71-18.27,2.96-38.8,4.74-58.88
	c1.16-13.03,2.27-26.29,4.06-39.25c2.71-19.63,5.41-34.52,7.44-52.79c1.92-17.29,7.44-31.13,10.15-48.73
	c3.51-22.83,0.68-50.08-0.68-73.77c-2.98,1.52-3.59,4.43-6.77,3.38c-1.8-0.6-4.19-29.55-6.09-44.67c-1.2-9.51-4.78-18.65-6.09-29.1
	c-0.2-1.59,0-7.44-0.68-8.8c-0.61-1.21-3.63-1.93-4.74-2.71c-3.75-2.64-7.3-7.21-6.31-11.69c2.47-11.13,9.14-20.52,13.75-30.95
	c2.52-5.7,8.28-12.38,12.86-14.21c3.38-1.35,9.79,19.52,13.54,18.27c2.03-0.68,0.68-11.51,3.21-18.34
	c1.36-3.66,3.12-6.52,1.53-10.08c-0.92-2.05-4.86-7.97-5.41-10.15c-1.14-4.45,0.81-8.26,4.06-11.51c5.41-5.41,5.26-8.91,2.03-12.18
	c-1.72,0.36-4.02-1.78-4.74-3.38c-0.72-1.6-1.03-7.08-0.68-8.8c4.06-19.63,1.26-35.16,6.13-54.63c1.3-5.2,2.89-10.32,3.96-15.57
	c2.7-13.22,2.78-30.03,2.09-43.5c-3.36,8.65-8.8,18.27-12.64,28.34c-1.3,3.4-3.39,6.53-6.02,9.05c-1.29,1.23-2.82,2.3-3.68,3.86
	c-1.28,2.32-0.84,5.27-1.96,7.66c-1.69,3.6-6.62,7.34-6.82,11.32c-0.12,2.34,1.71,3.97,2.71,6.09c2.88,6.1-0.06,10.71-2.71,16.92
	c-1.66,3.88-3.9,7.48-8.12,7.44c-3.49,10.72-5.18,24.03-6.77,35.19c-1.11,7.81-3.24,15.57-4.35,23.38c-0.5,3.51-0.22,5.59,0.29,9.11
	c0.4,2.76,1.1,5.34,1.35,8.12c0.38,4.25-1.51,10.01-3.1,13.97c-1.86,4.62-3.99,7.37-6.38,11.75c-1.83,3.37-4.34,6.34-4.74,10.15
	c-0.65,6.26,3.72,12.45,1.35,18.27c-0.56,1.37-1.32,3.57-2.71,4.06c-1.78,0.63-2.41,0.25-4.06-0.68c-3.37-1.9-8.12-5.41-10.15-9.48
	c-0.38,2.65,0.19,8.81,0.74,11.44s0.12,4.64-2.09,6.16c-2.22,1.53-4.35,1.38-6.09-0.68s-2.21-4.12-2.71-6.77
	c-0.81-4.35-1.54-9.79-1.35-14.21c0.75-17.67,16.07-29.01,16.24-46.7c0.04-4.35-1.7-11.91-2.03-16.24
	c-1.35-17.6-3.38-35.19-4.74-53.47c-0.32-4.36,1.28-10.05-1.35-13.54c-0.64-0.85-4.85-5.37-4.74-6.09c0.32-2.05-1.72-4.85-3.38-6.09
	c-0.83-3.82,6.1-4.89,6.09-8.8c0-1.15-0.22-1.65-0.68-2.71c-1.45-3.36-3.13-5.98-2.03-9.48c0.34-1.07,0.25-2.96,1.03-3.76
	c0.75-0.76,2.87-3.7,3.7-4.36c4.55-3.58,3.01-8,4.74-13.54c0.9-2.88,3.89-8.9,5.41-11.51c4.74-8.12,10.83-18.95,12.18-21.66
	c1.76-3.53-0.57-9.12,0.68-12.86c1.35-4.06,3.76-8.31,5.41-11.51c3.01-5.82,4.82-12.79,8.4-18.28c3.62-5.56,7.43-14.09,12.58-18.27
	s10.97-6.4,17.6-6.09c1.44,0.07,3.44-2.62,3.38-4.06c-0.13-3.05,1.93-2.52,4.7-3.79c9.91-4.52,11.3-5.15,21.69-8.4
	c3.13-0.98,12.86-4.06,18.27-3.38c0.68-7.44,2.02-9.2,6.77-10.83c0.6-0.2,2.11-2.22,2.71-2.03c2.05,0.66,2.66,5.96,4.74,5.41
	c0.6-5.19,0.05-8.75,0.65-13.94c0.11-0.93,0.21-1.93-0.19-2.78c-0.43-0.92-0.37-2.24-1.14-2.91c-2.4-2.09-3.75-5.09-4.74-8.12
	c-2.27-6.97-5.18-16.04-7.44-23.01c-10.19,1-31.81-0.68-37.22-6.77c-2.39-2.69-4.07-5.94-4.74-9.48c-1.02-5.38-1.85-9.8-1.82-15.28
	c0.01-1.72,0.12-3.56,1.17-4.92c1.65-2.14,4.72-5.01,7.42-4.84c12.2,0.79,23.69,7.44,36.6,6.19l1.67-0.6
	c-0.34-7.76-0.68-15.52-1.02-23.28c-0.11-2.44-0.2-4.98,0.77-7.22c1.97-4.55,7.43-6.27,11.16-9.53c2.23-1.94,4.29-4.28,6.98-5.5
	c2.09-0.95,4.48-0.05,6.77,0c10.88,0.22,20.3,0.68,31.13,1.35c3.94,0.25,8.8,0.68,10.83,2.71c1.03,1.03,3.16,3.97,3.38,5.41
	c0.87,5.56,2.03,14.93,3.38,15.57c2.76,1.28,14.12-4.42,25.72-5.41c3.74-0.32,12.86,1.07,16.24,2.71
	c4.63,2.24,8.72,5.64,10.21,10.56c2.13,7.01,4.18,15.28-0.06,21.25c-1.61,2.27-5.88,6.48-8.12,8.12c-9.55,7-16.49,10.55-27.75,14.21
	c-4.46,1.45-11.51,2.71-14.89,5.41c-0.69,0.56-0.07,3.06-0.63,3.75c-0.57,0.69-1.2,2.83-2.07,3.02c-6.09,1.35-6.66,6.72-7.44,12.18
	c-0.79,5.47-0.21,8.08,0.68,13.54c0.2,1.25,0.68,5.41,2.03,8.12c1.12,2.23,7.24-3.83,9.48-2.71c2.09,7.62-0.45,10.31,1.07,15.84
	c3-6.36,7.5-2.69,11.79-2.3c8.61,0.78,15.57,2.03,24.36,4.06c1.94,0.45,4.82,1.61,6.77,2.03c1.95,0.42,5.16,0.27,6.09,2.03
	c1.07,2.02-0.12,3.47,1.28,5.28c3.46-0.54,10.93-1.92,13.61,1.49c5.15,6.55,2.71,1.35,6.32,10.07
	c16.03,38.66,35.77,77.03,35.7,118.88c0,1.45,0.03,3.04,0.98,4.13c0.89,1.03,2.35,1.32,3.5,2.05c2.74,1.73,3.23,5.54,2.78,8.75
	s-1.54,6.44-0.9,9.61c0.42,2.08,1.55,3.94,2.2,5.95c1.91,5.94-1.06,13.06-6.64,15.87c-1.31,38.57-2.87,77.77,3.43,115.72
	c0.93,5.58,3.18,10.59,3.38,16.24c0.78,21.38-8.12,42.64-24.7,56.16c-0.52,0.42-1.11,0.86-1.78,0.79c-0.58-0.06-1.03-0.5-1.44-0.91
	c-1.19-1.2,0.53-3.45-2.54-5.29c-3.38-2.03-1.71-3.42-2.03-5.41c-0.26-1.64-2.19-1.63-2.03-3.38c0.11-1.24,1.72-3.44,2.03-4.74
	c0.18-0.75,1.63-3.34,1.35-4.06c-0.74-1.93-5.5-2.01-7.44-2.71c-1.97-0.71-3.5-1.91-3.67-4c-1.74-21.04,7.06-41.35,10.44-63.01
	c1.33-8.5-4.88-43.73-6.77-52.11c-5.19-23-8.12-25.04-11.92-44.09c-2,1.12-6.99,3.75-7.03,1.45c-0.35-20.19-7.44-22.33-5.41-25.04
	c1.14-1.52,4.79-8.39,4.71-10.29c-0.05-1.31-0.75-2.49-1.45-3.6c-3.61-5.79-7.63-11.33-12.01-16.56
	c0.74,23.43-0.06,49.41-1.41,72.42c-0.22,3.79,2.45,7.64-0.49,10.04c-1.81,1.48-4.57,2.08-5.42,4.26c-0.92,2.36-1.01,6.09,1.17,7.36
	s6.67,7.41,8.12,9.48c2.41,3.42-0.83,7.5-2.03,11.51c-4.65,15.58,5.59,25.54,11.59,40.66c5.82,14.66,9.19,30.15,12.54,45.56
	c0.34,1.58,0.66,3.34-0.15,4.74c-0.58,0.99-1.62,1.61-2.4,2.45c-3.02,3.24-1.44,8.41,0.14,12.55c5.29,13.85,8.66,28.44,9.98,43.21
	c-3.76,0.58-7.67,0.12-11.19-1.32c-1.95,24.03,3.35,49.7,8.98,73.14c8.14,33.89,18.06,69.74,24.66,104.55
	c7.44,39.25,15.57,59.56,23.69,98.14c4.46,21.16,0.55,20.8-3.38,33.16c-2.94,9.23-7.44,5.41-4.06,17.6
	c0.77,2.77,0.7,7.36,1.35,10.15c1.14,4.89,2.82,8.04-1.35,10.83c-4.18,2.79-11.92,3.63-16.92,4.06c-10.6,0.9-23.01,0.68-29.1-8.12
	c-4.75-6.86-1.3-16.76-4.74-24.36c-1.33,1.37-5.55,3.2-7.17,2.2C280.63,861.21,280.68,860.66,280.55,860.48z"/>
</svg>
