<?xml version="1.0" encoding="utf-8"?>
<!-- Generator: Adobe Illustrator 25.0.0, SVG Export Plug-In . SVG Version: 6.00 Build 0)  -->
<svg version="1.1" id="Layer_1" xmlns="http://www.w3.org/2000/svg" xmlns:xlink="http://www.w3.org/1999/xlink" x="0px" y="0px"
	 viewBox="0 0 357 900" style="enable-background:new 0 0 357 900;" xml:space="preserve">
<style type="text/css">
	.st0{opacity:0.45;fill:#46B034;}
</style>
<path class="st0" d="M346.16,305.9c-3.35-10.33-4.61-18.69-9.62-27.48c-2.05-3.6-9.46-10.57-11.68-14.43
	c-3.17-5.52-4.25-7.84-7.42-13.36c-15.4-26.82-26.93-54.66-44.79-81.45c-1.83-2.75-16.18-10.08-19.92-10.99
	c-8.46-2.06-14.21-2.74-22.67-4.81c-7.08-1.73-13.74-2.75-21.98-3.44c-0.6-4.13-1.36-6.99-1.96-11.12
	c-2.74,1.42-4.91-1.24-4.91-1.24s0.69-8.24,0.69-11.68c0-12.36,5.13-16.05,7.56-28.17c0.69-3.44,3.16-8.9,4.12-9.62
	c1.51-1.13,2.61-1.37,4.48-1.62c4.71-0.63,9.73-5.4,10.64-10.06c0.48-2.45,0.1-7.94-0.69-10.31c-0.69-2.06-2.17-3.73-3.44-5.5
	c-11.86-16.56-26.52-27.33-42.59-39.85c-6.28-4.89-16.83-10.7-24.73-11.68c-8.62-1.07-16.36,2.27-22.67,8.24s-10.8,13.76-15.11,21.3
	c-1.01,1.76-2.16,4.86-2.28,6.88c-0.13,2.1,0.75,4.13,1.66,6.03c2.42,5.05,5.24,9.91,8.42,14.52c-0.44,0.66-2.59,2.06-2.3,2.8
	c0.7,1.8,2.42,2.19,0,4.81c-1.31,1.42-2.6,3.11-3.71,4.69c-1.11,1.58-2.28,3.07-0.41,3.55c1.14,0.3,5.5,0,6.87,0.69
	c2.03,1.02,1.88,2.02,2.75,4.12c0.87,2.1,1.14,3.8,1.05,6.07c-0.1,2.65-1.72,3.65-1.74,6.3c-0.05,6.42,0.94,14.2,1.37,20.61
	c0.27,4.04,1.37,10.99,2.06,14.43c0.56,2.82,3.74,2.69,6.05,4.27c1.73,1.18,6.63,2.12,8.38,3.29c1.74,1.16,0.78,2.71,0.69,4.81
	c-0.07,1.46-2.63,2.22-3.44,3.44c-1.77,2.67-0.97,5.57-2.75,8.24c-18.55,2.75-32.29,3.44-48.78,6.87c-3.28,0.68-6.35,1.33-9.62,2.06
	c-5.68,1.26-9.62,10.99-14.43,18.55c-6.77,10.64-9.62,15.11-20.01,33.55c-4.86,8.63-16.17,19.92-19.84,25.53
	c-6.88,10.52-10.26,19.37-12.37,28.85c-1.37,6.18-6.87,13.74-6.87,19.92c0,5.5,0,14.43,2.06,18.55c1.42,2.83,6.75,6.9,9.62,8.24
	c23.36,10.99,36.41,19.24,57.02,28.17c4.05,1.76,19.96,2.95,21.98,6.87c-4.81,46.03-13.74,95.49-20.61,141.52
	c-4.44,29.72-7.42,59.47-10.99,89.31c-3.57,29.83-4.81,59.08-8.03,89.01c-0.54,5.04,0.23,11.14,4.61,13.7
	c3.05,1.78,6.91,1.07,10.29,0.05c3.38-1.02,8.92-2.54,12.37-1.77c3.45,0.78,3.19,4.13,3.02,7.66c-1.06,22.86-3.02,56.92-6.27,68.33
	c-0.88,3.11-0.84,6.72,0.89,9.45c1,1.57,3.98,3.43,4.41,5.24c0.33,1.38-1.58,6.22-2.06,7.56c-8.96,24.95-25.66,44.57-50.32,54.33
	c-3.5,1.39-7.45,2.74-9.26,6.05c-1.65,3-1,6.69-0.31,10.05c0.48,2.31,1.01,4.74,2.62,6.48c2.67,2.88,7.17,2.78,11.08,2.46
	c7.61-0.63,21.58-2.07,29.02-3.79c14.54-3.35,20.61-10.99,35.72-13.05c8.72-1.19,12.37-2.06,21.3-3.43
	c1.15-0.18,8.19-2.54,8.93-3.44c3.44-4.12,0-35.72-2.06-63.2c1.55,0.79,3.63-1.67,4.68-3.05c1.05-1.39,1.39-3.18,1.66-4.9
	c1.27-8.24,1.45-16.61,1.04-24.93c-0.51-10.4,0.87-12.46,0.18-21.39c8.93,1.37,23.23,2.68,31.6,0.69
	c8.37-1.99,11.7-6.14,19.24-10.31c5.47-3.02,9.93-4.51,15.4-7.53c2.46,23.33,3.26,35.66,3.83,58.37c0.09,3.66-1.07,22.6,0,26.11
	c1.13,3.73,4.02,5,6.18,8.24c1.37,2.06,0,9.62-2.59,21.86c-0.39,1.85-1.74,3.48-1.66,5.38c0.05,1.19,0.52,2.32,0.98,3.41
	c7.02,16.52,14.74,33.34,24.57,48.36c2.69,4.11,13.05,13.74,21.3,13.74c9.62,0,20.94-4.9,24.73-13.74c2.41-5.63,1-13.59-0.87-19.41
	c-7.28-22.69-23.85-43.56-23.18-65.09c0.23-7.32,3.25-7.05,4.12-8.24c1.94-2.66,1.37-7.02,1.37-10.31c0-26.79,0-50.15-1.37-79.01
	c5.5-1.37,13.66-0.82,19.24-1.37c3.25-0.33,4.47-1.42,6.25-4.17c1.55-2.39,1.12-5.49,0.78-8.32
	c-5.65-47.28-12.35-94.75-19.39-142.09c-3.82-25.69-9.28-51.33-13.1-77.02c-1.78-11.96-3.56-23.92-6.02-35.75
	c-4.35-20.91-10.25-41.17-12.48-62.41c6.45-1.48,12.67-3.8,18.86-6.1c28.3-10.52,68.1-22.54,85.83-32.63
	C349.6,324.45,348.06,311.78,346.16,305.9z M104.33,300.41c0,0-5.58-2.08-9.62-3.44c-6.58-2.22-13.13-3.35-19.92-4.81
	c-2.97-0.64-6.37-1.13-8.93-2.75c-2.56-1.62-5.27-3.19-4.81-6.18c0.6-3.9,5.42-9.01,7.38-12.43c1.45-2.53,3.11-4.58,4.98-6.81
	c1.08-1.29,4.7-3.33,6.18-4.12c5.78-3.07,8.13-5.84,14.12-8.47c5.83,12.5,9.35,26.05,10.4,39.8
	C104.44,295.36,104.33,300.41,104.33,300.41z M289.24,297.76c-0.21,0.75-1.05,1.11-1.79,1.34c-7.58,2.33-15.16,3.11-23.04,4.06
	c-5.36,0.65-10.99,2.75-16.2,2.67c-3.07-0.05-6.91,2.05-8.34-0.67c-0.71-1.34-0.32-2.97,0.09-4.43c2.02-7.3,4.56-13.63,6.59-20.93
	c1.45-5.23,5.5-21.98,5.5-21.98s17.18,10.99,27.48,25.42c3.12,4.36,7.36,8.07,9.46,13.01C289.18,296.72,289.38,297.25,289.24,297.76
	z"/>
</svg>
