<?xml version="1.0" encoding="utf-8"?>
<!-- Generator: Adobe Illustrator 25.0.0, SVG Export Plug-In . SVG Version: 6.00 Build 0)  -->
<svg version="1.1" id="Layer_1" xmlns="http://www.w3.org/2000/svg" xmlns:xlink="http://www.w3.org/1999/xlink" x="0px" y="0px"
	 viewBox="0 0 350 900" style="enable-background:new 0 0 350 900;" xml:space="preserve">
<style type="text/css">
	.st0{opacity:0.75;fill:#146FBC;}
</style>
<path class="st0" d="M341.68,132.59c-0.81-6.26-7.42-11.39-6.04-17.55c0.5-2.25,2.06-4.24,2.12-6.54c0.08-3.26-2.79-5.73-5.4-7.69
	c0.81-12.36,0.86-25.68,1.68-38.03c-1.46-1.1-2.14-3.14-1.63-4.89c-2.65,0.18-5.3,0.36-7.95,0.54c-0.06,0.88-0.13,1.76-0.19,2.64
	c-1.89-0.91-3.24,1.97-3.36,4.06c-0.8,12.94-1.4,25.89-1.79,38.84c-2.14-0.54-4.58,0.6-5.54,2.59c-0.96,1.99-0.34,4.61,1.42,5.95
	c-2.11,2.81-6.49,5.18-8.01,8.35c-1.27,2.65,0.39,5.18,0,8.11c-0.66,4.98-6.24,4.37-2.8,15.51c0.64,2.07-1.73,4.3-0.95,6.32
	c1.04,2.67,4.96,4.85,6.45,7.29c2.12,3.47,1.62,8.02,1.03,12.05c-2.5,1.87-3.12,1.25-3.12,1.25s-0.23,6.17,0.37,8.28
	c-1.21-0.66-3.49-0.17-3.49-0.17s0.7,4.86,0.62,6.24c-1.23,22.48-3.12,44.91-6.86,66.12c-16.84-18.71-31.91-38.78-43.67-61.76
	c-3.72-7.27-5.6-13.68-12.48-18.09c-3.4-2.18-11.94-5.76-15.59-7.49c-11.85-5.61-22.6-8.77-33.06-15.59
	c-2.92-1.91-6.11-4.01-8.11-6.86c-2.21-3.15-2.87-4.98-3.74-8.73c-0.6-2.58,1.85-6.15,1.25-8.73c-0.44-1.9-2.11-0.56-2.5-2.5
	c-0.62-3.12,0.62-13.72,0.62-13.72s4.4,0.25,6.24-1.25c4.3-3.51,7.48-7.52,9.98-12.48c0.98-1.95,2.68-6.56,2.5-8.73
	c-0.12-1.44-3.14-2.75-3.46-4.16c-1-4.44,1.25-8.89,1.94-13.38c1.34-8.62-3.05-16.98-7.29-24.6c-1.99-3.58-3.51-9.24-7.59-9.52
	c-0.59-6.46-7.39-10.54-13.75-11.83c-10.76-2.18-21.92,0.5-32.24,4.24c-1.26,0.46-2.59,0.98-3.41,2.05
	c-0.65,0.84-0.89,1.92-1.42,2.84c-1.68,2.93-5.69,3.57-8.03,6.01c-1.18,1.22-1.86,2.82-2.52,4.39c-2.35,5.57-4.72,11.21-5.71,17.17
	c-0.97,5.86-0.55,11.94,1.2,17.61c0.34,1.09,0.72,2.22,0.51,3.33c-0.19,0.98-0.82,1.81-1.28,2.7c-2.06,3.92-0.93,11.52,0.7,15.64
	c1.56,3.93,4.68,7.53,6.86,10.6c3.04,4.29,4.37,9.98,9.42,12.14c-0.19,3.76,0.46,7.83-0.06,11.56c-0.45,3.17-2.24,6.2-4.08,8.82
	c-2.4,3.43-6.49,5.2-10.36,6.8c-10.96,4.54-21.93,9.07-32.89,13.61c-6.99,2.89-14.06,5.83-20.17,10.29
	c-3.08,2.25-5.94,4.94-7.67,8.33c-1.74,3.41-2.23,7.3-2.52,11.11c-0.81,10.8-0.21,21.65,0.4,32.46c0.59,10.47-1.87,20.92-1.71,31.41
	c0.06,3.74,0.2,7.49,0.02,11.23c-0.32,6.4-1.6,12.7-2.88,18.98c-1.86,9.11-3.72,18.23-6.01,27.24c-2.51,9.83-4.49,20.05-7.43,29.77
	c-7.64,25.21-15.58,51.07-23.22,76.28c1.97,0.67,4.01,1.68,3.74,3.74c-0.27,2.06-1.34,5.13-2.5,6.86c1.99,1.17,3.07,1.83,5.06,3
	c-2.63,11.86-13.61,21.3-13.43,33.45c0.04,2.87,0.7,5.7,1.37,8.49c2.57,10.74,6.84,22.02,13.86,30.55c2.18-0.08,1.55-3.47,3.57-4.28
	c2.7-1.08,7.8,3.76,8.31,0.9c0.69-3.87-3.38-7.19-3.49-11.12c-0.02-0.83,0-1.68-0.29-2.46c-0.33-0.89-1.02-1.59-1.7-2.26
	c-3.3-3.25-6.73-6.63-8.29-10.98c-1.56-4.36-0.6-10.01,3.41-12.33c2.1,4.2,0.25,9.25,0.69,13.93c0.15,1.57,0.59,3.17,1.64,4.34
	c1.05,1.17,2.81,1.81,4.26,1.2c1.47-0.61,2.23-2.23,2.71-3.75c1.23-3.86,1.56-7.99,0.97-12c-0.17-1.16-0.42-2.34-0.19-3.49
	c0.22-1.1,0.86-2.05,1.43-3.01c3.68-6.15,4.93-14.36,3.81-21.44c2.3,1.09,6.24,1.25,6.24,1.25s1.03-2.36,1.33-2.97
	c0.58-1.18,2.34-1.57,3.36-0.75c2.94-23.72,15.33-45.3,22.75-68.02c1.5-4.58,3.72-9.08,4.99-13.72c3.8-13.94,6.07-28.48,8.28-42.75
	c2.19-14.21,4.38-28.42,6.57-42.63c-1.83,12.14-3.17,24.37-3.48,36.65c-0.13,5.22-0.08,10.44-0.36,15.66
	c-0.35,6.49-1.23,12.94-2.1,19.38c-3.21,23.7-6.43,47.4-9.64,71.1c-1.09,8.03-0.92,16.52-0.32,24.6c2.76,1.08,5.53,2.17,8.29,3.25
	c4.16,10.82,4.15,22.31,4.62,33.89c1.12,27.37,2.28,54.87,3.4,82.25c0.46,11.4,1.66,22.73,2.91,34.07
	c6.79,61.46,7.19,120.56,12.77,180.86c0.33,3.52,0.18,6.57,0.77,10.05c0.22,1.28,0.46,2.59,1.09,3.72c1.22,2.18,3.64,3.35,5.92,4.38
	c1.39,0.63,2.78,1.26,4.17,1.89c2.55,9.04,4.27,18.8,5.19,28.14c1.05,10.68,1.02,21.54,3.59,31.96c2.57,10.42,8.24,20.7,17.71,25.75
	c4.35,2.32,9.92,3.34,14.09,0.7c3.25-2.06,4.96-5.97,5.3-9.81c0.34-3.83-0.5-7.67-1.33-11.42c-3.12-14.12-6.24-28.23-9.36-42.35
	c8.37,5.74,16.32,11.86,23.43,19.1c2.97,3.03,6.16,6.36,10.36,6.93c3.44,0.47,6.94-1.12,9.37-3.6c2.43-2.47,3.91-5.74,4.87-9.07
	c0.28-0.96,0.52-1.96,0.36-2.95c-0.32-1.97-2.33-3.04-3.68-4.5c-16.1-17.38-26.08-34.84-32.44-57.06c-0.36-1.26,0.62-2.24,1.73-2.94
	c2.24-1.39,4.47-2.78,6.71-4.17c11.99-46.76,31.6-90.44,47.26-137.79c2.57-7.77,6.18-15.42,6.16-23.61
	c-0.15-53.06,0.01-105.58-2.18-159.6c2.69-1.6,5.35-3.45,8.31-4.47c-1.76-17-4.92-35.1-8-53.18c-1.58-9.29-5.02-19.45-5.72-28.85
	c-2.63-35.71,1.22-74.4,7.59-109.64c21.21,22.46,43.37,41.97,64.73,61.05c4.18,3.74,8.5,9.07,13.87,10.69
	c5.37,1.62,13.42,0.7,16.84-3.74c2.04-2.65,3.79-7.31,4.37-10.6c6.65-38.33,7.41-79.01,6.24-117.9c-1.2,0.13-3.37,0.66-4.5,0.24
	c0.54-2.15,0.57-4.4,0.38-6.61c-0.87-0.02-1.74-0.04-2.61-0.07c3.5-9.83,6.29-19.7,9.79-29.53
	C341.02,138.73,342.07,135.67,341.68,132.59z M151.65,666.05c-2.5-70.49,10.6-104.17,5.61-163.43c-4.99-59.26,1.25-65.5,1.25-65.5
	c4.99,4.99,21.21,159.07,21.21,159.07L151.65,666.05z"/>
</svg>
