<?xml version="1.0" encoding="utf-8"?>
<!-- Generator: Adobe Illustrator 25.0.0, SVG Export Plug-In . SVG Version: 6.00 Build 0)  -->
<svg version="1.1" id="Layer_1" xmlns="http://www.w3.org/2000/svg" xmlns:xlink="http://www.w3.org/1999/xlink" x="0px" y="0px"
	 viewBox="0 0 475 900" style="enable-background:new 0 0 475 900;" xml:space="preserve">
<style type="text/css">
	.st0{opacity:0.35;fill:#F6EA00;}
</style>
<path class="st0" d="M474.53,259.35c-5.51-13.78-11.2-27.68-16.71-41.46c-3.15,1.99-6.08,4.49-8.96,6.86
	c-4.3-14.51-0.84-30.15-5.6-44.51c-10.07,6.58-20.49,12.61-31.21,18.06c-2.38,1.21-4.67,2.43-7.33,2.65
	c-3.65-4.7-6.96-9.68-9.89-14.86c-0.9-1.6-1.51-3.55-1.75-5.37c-17.29,11.4-35.4,21.31-54.29,29.81c8.9,1.81,18.01,3.63,27,2.36
	c6.7-0.94,14.3-3.42,20.96-2.22c-5.29,4.26-10.97,8.04-16.95,11.27c3.14,0.7,6.44,0.66,9.55-0.14c-2.79,7.56-1.8,15.93-0.75,23.92
	c0.1,0.74,0.19,1.51-0.04,2.22c-0.21,0.64-0.67,1.16-1.12,1.67c-1.83,2.05-3.2,4.15-5.03,6.2c-15.25-1.51-29.14-6.92-43.34-12.7
	c-6.36,8.62-11.56,18.09-15.42,28.08c-0.79,2.06-1.54,4.19-1.55,6.39c0,1.96,0.58,3.88,1.31,5.7c4.93,12.24,15.98,21.26,24.35,31.46
	c-10.93,7.21-23.57,11.49-36.39,14.17c-12.82,2.68-25.85,4.64-38.87,6.03c-5.11-30.24-18.82-58.13-36.94-82.88
	c1.91,0.24,3.8,0.61,5.65,1.1c-1.5-8.01-4.12-16.13-9.65-22.11c4.42,0.35,8.92,1.7,12.97,3.5c-4.29-18.25-20.37-31.28-28.14-48.35
	c-1.71-3.75-2.76-8.77,0.33-11.5c1.98-1.75,4.94-1.79,7.55-1.34c11.58,1.96,20.53,10.89,28.66,19.37
	c6.41,6.68,12.65,13.36,19.06,20.04c3.33,0.12,6.58-1.2,9.31-3.09c2.74-1.89,5.04-4.34,7.31-6.77c1.04-1.11,2.08-2.22,3.12-3.33
	c0.69-0.73,1.38-1.48,1.82-2.37c0.93-1.88,1.18-4.33,0.85-6.4c-5.87,0.5-11.75,0.78-17.63,0.86c-0.1-1.64,0.52-3.23,0.73-4.86
	c0.22-1.63-0.13-3.55-1.55-4.37c-1.89-1.08-4.43,0.42-6.41-0.49c-1.6-0.73-2.15-2.68-2.56-4.38c-2.78-11.53-6.79-22.93-12.68-33.23
	c5.39,6.55,11.42,12.56,17.99,17.92c4.51,3.68,9.44,7.26,11.97,12.5c0.42,0.88,0.79,1.82,1.48,2.51c1.05,1.06,2.64,1.35,4.11,1.61
	c4.1,0.72,8.17,1.67,12.17,2.83c2.48,0.72,5.09,1.63,6.67,3.67c4.03,5.2-0.95,13.38,1.77,19.37c10.89-6.76,21.24-14.62,29.55-24.38
	c2.93-3.44,5.59-7.1,8.25-10.75c0.58-0.8,1.18-1.62,1.42-2.58c0.65-2.54-1.32-4.95-3.17-6.81c-22.41-22.54-49.71-39.37-71.96-62.07
	c0-12.11-2.37-24.3-7.68-35.18c-5.31-10.88-13.62-20.4-24.12-26.43c-14.82-8.5-35.23-4.21-48.8-14.59
	C170.5,11.68,153.57,5.96,136.61,6c-14.74,0.03-29.62,4.24-44.03,1.17c2.39,1.52,4.6,3.98,6.98,5.5c7.52,4.78,15.23,9.72,20.51,16.9
	c3.46,4.69,5.68,9.1,9.93,13.09l-0.53,0.6c-14.88,4.26-28.96,11.31-41.27,20.69c-5.57,4.24-10.13,9.96-13.65,16.01
	c6.35-4.6,14.33-6.91,22.15-6.43c0.59,0.04,1.22,0.1,1.69,0.46c1.38,1.05,0.29,3.23-0.89,4.5c-4.67,5.02-9.94,9.47-14.42,14.66
	c-4.48,5.19-8.23,11.32-9.08,18.12c4.05-5.11,10.94-7.79,17.38-6.77c-2.78,3.57-5.56,7.15-8.34,10.72c-2.09,2.69-4.21,5.43-5.47,8.6
	c-1.26,3.17-1.49,6.89,0.06,9.93c-12.78-0.8-24.24-4.66-36.79-7.23c-8.72-1.78-18.34-2.44-27.2-1.51
	c-4.48,0.47-9.08,0.49-13.64,0.57v6.81c1.3,0.09,2.57,0.22,3.81,0.4c4.15,0.62,8.73,1.96,10.77,5.63c-2.49,2-5.95,2.1-9.15,2.09
	c-1.81-0.01-3.62-0.01-5.44-0.02V676.8c12.85-12.14,23.18-26.95,29.88-43.31c1.31,4.55,1.4,9.45,0.24,14.05
	c7.37-13.84,14.75-27.68,22.12-41.51c12.2-22.89,24.13-45.69,31.95-70.42c8.57,21.34,25.93,38.16,45.27,50.6
	c-0.17-2.65-0.83-5.21-1.39-7.8c10.27,12.47,19.15,25.5,32.91,33.96c4.75,2.92,9.86,7.46,11.33,12.85
	c0.93,3.42,1.39,8.51-0.76,11.33c-2.15,2.82-6.07,4.39-9.56,5.03c-5.55,1.02-9.25,2.31-14.62,4.04c-3.77,1.21-8.64,5.08-11.39,7.93
	c-2.05,2.12-3.11,5-3.93,7.84c-3.67,12.72-3.51,26.52,0.46,39.15c1.95-1.66,1.7-4.65,1.86-7.2c0.16-2.55,2.94-5.91,5.45-5.4
	c0.62,5.87,4.29,11.55,8.31,15.87c4.02,4.32,10.64,7.51,14.36,12.09c7.38,9.08,10.58,21.19,13.6,32.49c2.53,9.45,1.69,19.55,4.21,29
	c0.79-0.38,4.06-2.93,4.85-3.31c3.21,9.12,7.56,20.4,7.56,30.22c0,12.25,0.73,27.13,6.8,37.78c2.28,3.99,5.09,6.01,9.07,8.31
	c7.52,4.35,18.24,2.54,26.91,3.12c10.53,0.7,20.78,6.4,30.52,10.48c23.42,9.82,45.34,15.87,68.82,20.86
	c2.16,0.46,4.37,1.8,6.33,0.79c1.73-0.89,2.5-3.05,2.32-4.99c-0.18-1.94-1.11-3.72-2.02-5.43c2.48,0.77,5.59-0.15,8.05-0.99
	c-2.06-4.47-6.6-7.8-9.18-12.2c-3.21-5.47-6.44-9.95-11.62-13.91c-5.27-4.03-10.92-8.76-17.16-10.98c-7.59-2.7-15.96-2.7-23.6-5.22
	c-12.27-4.04-25.47-7.77-36.68-14.31c-12.25-7.15-18.55-17.46-24.27-30.24c-3.02-6.76-5.46-13.94-7.25-21.12
	c-1.04-4.16-3.47-7.61-4.38-11.82c-0.41-1.88-1.08-4.92-1.51-6.8c-0.15-0.65,0-3.78-0.76-6.04c-2.71-15.7-2.93-26.57-5.33-42.32
	c3.2,3.73,8.86,3.88,13.73,3.28c14.99-1.86,29.4-8.16,40.93-17.9c1.02,5.84,0.5,11.95-1.49,17.54
	c10.58-12.46,20.01-26.17,25.54-41.56c5.53-15.39,7.81-32.73,2.48-48.19c3.42,3.5,6.83,7.01,10.25,10.51
	c-6.63-17.06-13.26-34.13-19.89-51.19c-1.87-4.81-3.74-9.63-6.01-14.27c-8.71-17.82-22.21-32.84-36.11-46.99
	c5.2,1.48,10.18,3.73,14.73,6.65c-16.8-21-38.67-37.46-61.85-51.1c-2.88-1.7-5.8-3.35-8.86-4.69c-8.46-3.7-17.37-4.85-25.47-9.28
	c-1.29-2.86-1.73-6.09-1.27-9.2c0.19-1.29,0.54-2.59,0.35-3.88c-0.19-1.29-1.13-2.6-2.43-2.68c7.65-7.62,13.34-17.2,16.38-27.56
	c-2.42,1.33-4.97,2.44-7.59,3.31c9.26-9.09,17.73-19.39,24.81-30.26c1.69,9.34,3.67,19.27,10.25,26.11
	c5.09,5.29,12.24,7.98,18.25,12.18c-1.92-5.5-3.84-11.01-5.75-16.51c9.75,14.31,25.57,24.32,42.67,27.02
	c-2.92-5.23-5.3-10.85-7.95-16.22c11.97-0.13,24.16-0.44,35.48-4.33c6.17-2.12,11.95-5.26,17.55-8.61
	c6.07-3.64,11.98-7.56,17.7-11.74c6.56-4.8,12.87-9.94,19.17-15.07c13.2-10.75,25.42-23.35,39.91-32.29
	c5.33-3.29,12.06-2.76,18.22-3.92c7.38-1.4,14.01-5.3,20.47-9.14c9.79-5.81,19.59-11.63,29.38-17.44
	c8.71-5.17,18.41-10.74,26.99-16.1c-2.56-8.53-11.44-13.78-15.2-21.86C459.16,267.67,467.81,264.72,474.53,259.35z M352.15,275.38
	c0,0-9.82-1.51-12.85-11.33c0,0,12.09,4.53,21.91-0.76C361.21,263.29,353.66,270.09,352.15,275.38z M409.57,240.62
	c0,0-3.02-6.04-3.78-21.16l16.62-3.78L409.57,240.62z"/>
</svg>
